<?xml version="1.0" standalone="no"?>
<!DOCTYPE svg PUBLIC "-//W3C//DTD SVG 20010904//EN"
 "http://www.w3.org/TR/2001/REC-SVG-20010904/DTD/svg10.dtd">
<svg version="1.0" xmlns="http://www.w3.org/2000/svg"
 width="250.000000pt" height="250.000000pt" viewBox="0 0 250.000000 250.000000"
 preserveAspectRatio="xMidYMid meet">

<g transform="translate(0.000000,250.000000) scale(0.100000,-0.100000)"
fill="#000000" stroke="none">
<path d="M1053 2048 c-2 -5 -28 -19 -56 -32 -51 -24 -91 -59 -80 -70 4 -3 1
-6 -5 -6 -7 0 -12 -10 -12 -21 0 -12 -10 -37 -22 -57 -20 -32 -21 -40 -11 -98
6 -35 18 -77 27 -95 9 -18 16 -44 16 -59 0 -15 13 -54 30 -86 16 -32 30 -67
30 -76 0 -10 -12 -42 -26 -72 l-27 -54 -131 -57 c-72 -32 -158 -66 -191 -75
-78 -22 -74 -12 -139 -296 -27 -121 -46 -322 -46 -494 0 -191 3 -201 94 -324
l57 -76 588 0 588 0 19 38 c10 20 27 46 36 58 19 22 68 152 68 181 0 10 6 36
14 58 12 34 12 53 0 125 -8 47 -19 112 -24 145 -5 33 -16 105 -25 160 -16 99
-29 173 -45 250 -5 22 -14 66 -20 97 -6 32 -17 61 -23 65 -7 4 -92 35 -190 68
-231 78 -225 70 -179 229 5 18 4 18 -10 5 -9 -7 -14 -16 -12 -18 5 -6 -17 -31
-27 -31 -5 0 -8 14 -7 32 3 26 -1 33 -22 38 -14 3 -25 12 -25 20 0 10 -9 14
-26 12 -22 -2 -30 4 -44 34 -13 27 -15 42 -7 58 13 30 -11 76 -41 76 -39 0
-50 13 -36 43 23 51 110 57 198 14 45 -22 50 -28 55 -68 2 -13 7 -37 11 -53
l8 -28 18 38 c10 22 18 53 19 70 0 18 8 39 20 49 11 10 20 28 20 39 0 40 -27
99 -57 125 -16 14 -37 37 -46 51 -14 23 -84 57 -137 67 -34 7 -162 7 -167 1z
m62 -368 c4 -6 -5 -10 -20 -10 -15 0 -24 4 -20 10 3 6 12 10 20 10 8 0 17 -4
20 -10z m49 -60 c3 0 3 8 0 18 -5 14 -4 15 5 2 7 -11 6 -21 -5 -39 -9 -13 -16
-38 -17 -56 -1 -30 -4 -34 -36 -38 -42 -5 -57 -1 -59 16 -1 7 -4 31 -6 54 l-5
42 39 -2 c22 -1 45 4 51 10 9 9 6 10 -12 6 -21 -6 -21 -5 -8 10 13 15 15 15
31 -3 9 -11 19 -20 22 -20z m-224 -25 c0 -8 -4 -15 -10 -15 -5 0 -10 7 -10 15
0 8 5 15 10 15 6 0 10 -7 10 -15z m250 -45 c0 -5 -7 -10 -15 -10 -8 0 -15 5
-15 10 0 6 7 10 15 10 8 0 15 -4 15 -10z m-116 -76 c9 -22 -3 -32 -14 -14 -12
19 -12 30 -1 30 5 0 12 -7 15 -16z m181 6 c16 -7 13 -9 -15 -9 -19 0 -44 4
-55 9 -16 7 -13 9 15 9 19 0 44 -4 55 -9z m-88 -67 c20 -18 16 -32 -8 -26 -12
4 -18 11 -15 20 3 8 2 12 -3 9 -11 -7 -53 38 -44 47 6 6 18 -2 70 -50z m131
32 c7 -6 -33 -43 -67 -63 -37 -21 -38 -4 -2 26 l34 28 -40 -4 c-31 -3 -42 0
-47 13 -5 15 0 16 55 11 34 -3 64 -8 67 -11z m-82 -206 c3 3 -1 -8 -10 -26 -9
-18 -16 -39 -16 -48 0 -8 -4 -15 -10 -15 -5 0 -10 11 -10 25 0 14 -7 36 -16
49 l-15 24 35 -8 c19 -4 38 -5 42 -1z"/>
<path d="M1286 1691 c-43 -9 -54 -33 -29 -60 28 -30 82 -26 94 7 5 13 5 21 1
18 -4 -2 -18 2 -32 10 l-25 15 33 -4 c20 -2 31 0 29 7 -4 13 -32 16 -71 7z"/>
</g>
</svg>
